PathFileType	4	(X/Y/Z)	C:\Users\WrightLab\Desktop\Jo\P5V111.trc
DataRate	CameraRate	NumFrames	NumMarkers	Units	OrigDataRate	OrigDataStartFrame	OrigNumFrames
100.00	100.00	      20	19	mm	100.00	875	      1166
Frame#	Time	Headset_Front			Headset_Back			Headset_Left			Headset_Right			Left_Shoulder			Right_Shoulder			Sternum			C7			Left Elbow			Right Elbow			Left Wrist			Right Wrist			Left ASIS			Right ASIS			S2			Left Knee			Right Knee			Left Ankle			Right Ankle			
		X1	Y1	Z1	X2	Y2	Z2	X3	Y3	Z3	X4	Y4	Z4	X5	Y5	Z5	X6	Y6	Z6	X7	Y7	Z7	X8	Y8	Z8	X9	Y9	Z9	X10	Y10	Z10	X11	Y11	Z11	X12	Y12	Z12	X13	Y13	Z13	X14	Y14	Z14	X15	Y15	Z15	X16	Y16	Z16	X17	Y17	Z17	X18	Y18	Z18	X19	Y19	Z19	

875	8.740	143.22089	1527.26294	-578.31775	247.63998	1724.81055	-501.23892							295.77719	1436.66309	-344.14175				293.79019	1311.43713	-592.71606	114.40836	1441.84216	-457.26770	185.63177	1226.91174	-217.57355	482.67624	1291.64319	-887.97754	-38.77548	1128.51184	-180.44193	298.33255	1132.80566	-906.69495	261.55002	913.07867	-507.92673	369.23093	982.68439	-758.69623	567.21741	998.86627	-542.83453	298.58911	500.22162	-451.77957	424.66757	497.76224	-777.46783	418.55029	95.81470	-369.39548	444.34085	92.33248	-773.33386	
876	8.750	142.49156	1527.31299	-580.73737	247.17387	1724.74597	-503.26935							295.88043	1436.42578	-346.19626				293.11734	1311.57617	-594.96759	113.90895	1442.08179	-460.18924	185.86156	1227.00574	-219.54538	481.34750	1292.20203	-891.06195	-38.05820	1128.15552	-181.15645	296.89597	1133.28198	-909.85675	261.96817	912.26453	-511.53726	367.58710	982.53680	-762.25732	567.19983	998.67407	-546.52173	297.45212	499.74219	-456.28342	425.90039	498.34402	-779.18945	418.56119	95.81813	-369.39017	444.56302	92.47271	-773.49872	
877	8.760	141.73479	1527.34924	-583.06635	246.79320	1724.02527	-505.59698							295.87708	1436.44678	-348.34412	376.37576	1503.31860	-724.50873	292.23904	1311.78674	-597.94739	113.62873	1441.94006	-462.31262	186.86435	1226.16345	-222.02051	479.76096	1292.45105	-894.83002	-37.22890	1127.39050	-182.66769	295.49713	1133.70740	-912.44928	262.40668	911.88538	-514.89453	365.96994	982.61938	-765.95593	567.14636	998.47162	-550.56531	294.63925	498.68484	-460.37189	426.27737	498.66321	-782.84290	418.80359	96.31093	-369.25766	444.81824	92.23254	-773.59308	
878	8.770	141.15219	1526.91785	-585.25244	246.25128	1724.07507	-508.43835							296.02377	1436.56165	-351.89771				291.44992	1311.46069	-600.37396	113.23807	1441.58716	-464.32178	186.01231	1227.17444	-224.10771	478.11957	1292.37878	-898.47839	-36.58355	1127.08801	-182.84425	293.64441	1134.14844	-914.42786	262.49268	910.88287	-518.11157	364.50290	982.55121	-769.69092	566.86621	998.54968	-555.04199	294.03482	498.09070	-464.43509	426.52762	499.27087	-786.15314	418.82080	96.59516	-369.36829	446.43372	93.21655	-773.00055	
879	8.780	140.50214	1526.74207	-587.57990	245.87723	1723.95300	-510.54211							295.38004	1436.22449	-355.21097				290.68768	1310.84094	-602.43121	112.59473	1440.97754	-467.09943	186.10873	1226.79688	-226.42758	476.69461	1292.72498	-901.70239	-35.69305	1126.31152	-183.43994	292.03494	1135.00989	-917.37122	262.62955	910.16431	-520.12225	363.19247	982.72900	-773.25220	566.33588	998.04889	-559.14789	294.92978	496.73727	-468.32324	426.54306	499.67227	-789.40948	418.78433	96.63112	-369.60638	446.52692	92.58491	-773.87952	
880	8.790	139.68317	1526.56580	-589.44019	245.49895	1723.32922	-512.80060							296.07162	1436.26611	-356.40594				289.65637	1310.92310	-606.18494	111.96709	1441.00916	-469.46878	186.83929	1226.19470	-227.88834	475.24374	1292.81335	-904.80634	-34.48359	1127.06763	-182.71086	290.76291	1135.39722	-919.87732	262.04294	909.52338	-522.76270	362.06854	982.02063	-776.76215	566.35541	997.94824	-563.03351	292.75159	496.58975	-472.63672	425.96854	500.23611	-792.84448	419.00134	97.18798	-369.55344	446.52692	92.58491	-773.87952	
881	8.800	138.95395	1526.57202	-591.37701	244.94221	1723.19958	-515.35815							297.18396	1436.17090	-359.20883				289.03214	1310.23425	-608.09869	111.63127	1440.64490	-471.14102	187.28442	1225.57910	-230.76279	474.01868	1293.37036	-908.30774	-34.06236	1126.01770	-184.31900	289.59360	1135.43542	-922.19928	262.41919	909.38727	-526.45233	360.64444	982.03271	-780.76703	566.18842	997.87714	-567.50562	292.21713	496.32312	-476.75504	425.69540	499.79962	-795.30634	418.97116	97.26353	-370.04282	446.75894	92.41304	-773.78033	
882	8.810	138.19080	1526.40198	-593.84076	244.57770	1722.91589	-517.36774							297.45462	1436.07532	-361.79715	370.70993	1502.24609	-739.76019	288.56509	1309.85034	-610.04456	111.23717	1440.01172	-473.17072	188.96529	1225.69922	-233.55280	472.85553	1293.58838	-911.71893	-32.30527	1125.40271	-184.54420	287.55743	1135.36218	-925.81561	262.42603	908.90387	-528.52521	359.71671	982.14069	-785.01282	566.42792	997.84839	-571.40979	292.12555	495.61063	-479.34445	425.17410	500.11469	-798.68353	419.22766	97.08640	-370.50452	447.11655	92.36590	-773.81287	
883	8.820	137.45921	1526.18726	-596.22040	244.06908	1722.35461	-519.99084							297.56577	1435.49390	-363.44281				287.73996	1309.92932	-613.51080	110.95377	1440.01685	-475.86627	190.50139	1224.92554	-235.45117	470.99799	1293.90710	-915.57495	-31.00616	1125.31494	-185.38832	286.29919	1135.75427	-928.54266	261.84259	908.28516	-530.34003	358.69037	982.13226	-788.08484	566.11206	997.39417	-575.40820	292.29147	495.18887	-481.88818	424.45624	500.11008	-801.61255	419.14658	97.45605	-370.66559	447.04388	92.12990	-774.10645	
884	8.830	136.91135	1525.74194	-597.99139	243.40562	1722.18677	-522.07635							298.15048	1435.42212	-366.25754				287.36630	1309.45911	-614.93518	110.53160	1439.15149	-477.77344	191.45839	1224.26440	-237.87053	469.70706	1293.71851	-919.00311	-29.81704	1125.08716	-185.43422	285.16995	1135.44641	-931.14819	262.12274	907.86255	-533.87183	357.65811	981.84174	-792.00861	565.65808	997.35217	-578.98480	291.89059	495.03775	-485.30258	423.68835	500.47458	-805.29114	419.31735	97.20551	-370.73209	448.01028	91.84896	-774.32080	
885	8.840	136.15404	1525.24414	-600.50940	242.88353	1721.87085	-523.60431							298.31320	1435.03467	-368.70578				286.61111	1309.16907	-617.75232	110.24148	1438.71338	-480.30688	192.11583	1224.32239	-238.76456	468.24176	1293.55237	-922.28448	-27.69622	1124.52930	-186.02014	283.71454	1135.51794	-933.72595	262.17264	906.77838	-537.12726	356.39633	981.42352	-794.52899	565.64764	997.12286	-583.53571	291.59467	494.56067	-486.88724	422.93100	499.90634	-807.79089	419.10388	97.41534	-371.09402	447.92786	91.97483	-775.05151	
886	8.850	135.89789	1524.88074	-602.99835	242.16814	1721.35925	-526.83264							299.11026	1434.72546	-370.90063	366.33713	1501.35754	-750.98621	285.94916	1308.81726	-620.55261	110.02515	1438.15161	-482.14124	194.40894	1223.65198	-240.07385	467.05869	1293.69849	-925.51398	-25.71352	1125.09583	-186.68004	281.91055	1135.35803	-937.21106	262.21860	906.42621	-538.31793	355.44208	981.60852	-798.07617	565.05597	997.07874	-587.77295	291.14560	494.38779	-489.82904	422.49823	499.74432	-810.63672	419.44980	97.28310	-371.13773	447.03467	91.03269	-776.00000	
887	8.860	135.15742	1524.76245	-605.35150	241.49176	1721.24072	-529.29431							298.80508	1434.31213	-373.35727	365.09464	1501.44067	-753.84363	285.16791	1308.53259	-623.46252	109.73037	1437.87573	-484.59262	195.02396	1223.04321	-241.31795	466.01089	1293.85522	-928.75085	-24.32380	1124.99792	-187.45985	281.01190	1135.10498	-940.12781	262.90991	906.15997	-541.73700	354.04218	981.26282	-800.48248	564.85297	996.47925	-591.08002	290.83228	494.06146	-493.32227	421.86667	499.43463	-813.32745	419.87091	97.60775	-371.22705	448.43747	90.72227	-775.15930	
888	8.870	134.43098	1524.76526	-607.67303	240.94812	1721.19788	-531.11523							298.68912	1434.09924	-375.66995				284.62131	1308.12354	-625.38739	109.57328	1437.51953	-486.26785	196.04033	1223.10510	-244.22835	464.47116	1293.70129	-931.25079	-21.83207	1124.85962	-188.62549	279.89981	1134.93713	-942.71271	262.93430	905.72321	-544.14648	352.96698	981.63159	-803.94440	564.37109	996.40430	-594.91840	290.96420	493.30978	-494.80475	421.60852	499.90292	-816.93329	419.89545	97.69646	-371.24670	448.68976	90.79031	-775.67566	
889	8.880	134.07153	1523.71167	-609.29596	240.32603	1720.68506	-533.93201							299.89410	1434.64648	-377.21039	362.74127	1500.74011	-759.05780	283.91129	1307.75562	-628.59998	109.02780	1436.62512	-488.91626	198.56784	1222.49756	-246.47249	463.04135	1293.58667	-934.88361	-20.96533	1123.82739	-188.61327	278.35156	1134.98218	-945.63818	262.50925	904.57281	-545.86652	351.88806	980.67572	-806.12097	564.19440	996.10114	-598.48181	290.90744	492.48959	-498.31683	421.69781	500.11896	-819.30774	420.00208	97.63066	-371.72733	449.05164	90.80418	-775.76117	
890	8.890	132.75978	1523.47668	-611.41571	239.79059	1720.22424	-536.27173							300.48828	1433.72876	-379.82205				283.70947	1307.14221	-629.55371	108.78230	1436.55396	-490.96597	199.28085	1222.70740	-247.32967	461.43015	1293.41479	-938.18915	-19.47922	1123.55347	-189.25981	276.85031	1134.71729	-948.79321	262.16846	904.08875	-549.42737	350.88297	980.52289	-808.70276	563.70917	995.69934	-602.08936	291.06329	491.72321	-502.68066	421.33105	500.06198	-822.05066	419.95096	97.76231	-371.77859	449.05164	90.80418	-775.76117	
891	8.900	132.62622	1523.05884	-613.39203	239.22415	1720.16602	-538.07684							300.94998	1433.53918	-381.67889	457.24136	1536.43384	-548.41553	282.77005	1306.78406	-632.98047	110.48459	1436.06055	-492.14941	201.31384	1221.84619	-249.54892	460.07431	1293.68188	-941.48425	-17.80050	1123.10779	-190.13359	275.88980	1134.45935	-951.86194	262.23694	903.65778	-552.00128	349.80148	980.11304	-811.74182	563.45593	995.72778	-605.48987	291.39963	491.04791	-507.00461	420.78500	500.69699	-825.43054	419.75848	97.81008	-371.83536	449.05164	90.80418	-775.76117	
892	8.910	131.79024	1522.56519	-615.32397	238.74176	1719.59827	-540.63440							301.28534	1434.07617	-383.61887	456.42273	1536.16626	-551.28503	282.40048	1306.66309	-634.93793	108.04681	1435.57739	-494.44162	203.18346	1221.92578	-250.81427	458.86142	1293.20081	-944.82916	-16.11222	1122.56702	-190.08342	274.68805	1134.18665	-954.60284	261.54614	903.00958	-553.32562	348.33221	979.20209	-813.49017	562.62402	995.79199	-608.69794	291.94693	490.45969	-510.68347	420.52127	500.67850	-828.32745	419.38611	98.18591	-372.25247	448.22229	90.12489	-776.57019	
893	8.920	131.09227	1522.38062	-617.49915	238.16333	1719.15051	-543.30298							301.48819	1433.92029	-385.56506	455.83337	1535.99878	-555.01190	281.79398	1305.66919	-636.79883	107.67372	1435.24792	-496.89987	205.06717	1221.48071	-252.49028	457.36591	1292.99646	-947.21844	-13.14092	1123.35925	-190.69543	273.15170	1133.79248	-957.42090	261.57632	902.08325	-556.69543	347.15674	979.26031	-816.30505	561.94385	995.41638	-612.14240	292.77600	489.81070	-514.25464	419.51010	501.17972	-831.33746	419.33722	98.40572	-372.49173	450.05292	91.26184	-776.16943	
894	8.930	130.41617	1522.02356	-619.24780	237.54645	1719.16736	-545.48798							301.76456	1433.79944	-388.80148	455.82648	1535.25378	-557.41681	281.23944	1305.70227	-638.77856	107.30831	1434.72974	-498.85455	206.50409	1221.27112	-253.16881	455.86768	1292.93774	-951.00842	-11.54989	1123.51807	-192.29980	271.26004	1133.37695	-959.04095	261.37314	901.32629	-557.80743	346.43765	979.05719	-818.87195	561.58661	995.21234	-614.64911	293.78134	489.25064	-518.04205	418.91837	500.94940	-834.42188	419.15677	98.94244	-372.96277	449.40744	90.75443	-777.00702	
